<svg version="1.1" id="_x31_0" xmlns="http://www.w3.org/2000/svg" x="0" y="0" viewBox="0 0 512 512" style="width:32px;height:32px" xml:space="preserve" opacity="1"><style>.st0{fill:#374149}</style><path class="st0" d="M453.394 226.605v-.226l-61.477 61.477v160.535c0 .766-.847 1.614-1.613 1.614H222.746l-159.996-.153-.352-.156c-.305-.078-.614-.387-.922-1.305V121.176c0-.847.77-1.613 1.613-1.613h162.684l35.969-35.969 25.508-25.348h-.161l.161-.16H63.09C28.282 58.086 0 86.364 0 121.176v327.215c0 15.211 5.535 29.969 15.371 41.11.77.926 1.703 1.691 2.527 2.562.461.484.93.957 1.394 1.41.809.786 1.508 1.68 2.375 2.406a62.646 62.646 0 0041.422 15.602h327.215c34.809 0 63.09-28.281 63.09-63.09V318.422l.114-91.93-.114.113z" fill="#3aabd2"/><path class="st0" d="M505.711 84.672l-77.856-77.86c-4.062-4.058-9.402-6.297-15.027-6.293-5.332-.004-10.309 2.039-14.011 5.742L153.25 251.828l-41.231 132.054c-1.453 4.645-.152 9.715 3.375 13.246 2.523 2.527 5.942 3.973 9.39 3.973 1.305 0 2.602-.199 3.864-.59l132.054-41.234L506.27 113.715c7.855-7.855 7.601-20.883-.559-29.043zM269.23 310.567c-1.469-4.18-3.73-8.055-6.66-11.348l168.629-168.625 9.051 9.05-119.379 119.38-51.641 51.543zm-22.691 22.789l-.946.946-79.058 24.683-12.988-12.992 24.683-79.058.946-.942 10.878-.57a9.944 9.944 0 017.645 2.93c2.039 2.039 3.078 4.754 2.926 7.641a34.211 34.211 0 009.965 25.942 34.235 34.235 0 0025.946 9.969c2.882-.157 5.598.894 7.649 2.945 2.034 2.031 3.074 4.742 2.926 7.625l-.572 10.881zm-44.601-90.129l170.946-170.95 9.054 9.055-168.625 168.621c-2.852-2.527-6.176-4.442-9.703-5.898-.571-.262-1.087-.586-1.672-.828zm33.34 44.601c-2.887.148-5.602-.891-7.645-2.938-2.039-2.039-3.078-4.754-2.93-7.641a34.123 34.123 0 00-1.457-11.758l171.43-171.426 23.781 23.785-171.43 171.426a33.889 33.889 0 00-11.749-1.448zM385.625 59.543l27.438-27.441 67.363 67.367-27.438 27.437-67.363-67.363z" fill="#3aabd2"/></svg>